<?xml version="1.0" encoding="iso-8859-1"?>
<!-- Generator: Adobe Illustrator 18.0.0, SVG Export Plug-In . SVG Version: 6.00 Build 0)  -->
<!DOCTYPE svg PUBLIC "-//W3C//DTD SVG 1.1//EN" "http://www.w3.org/Graphics/SVG/1.1/DTD/svg11.dtd">
<svg version="1.1" id="Capa_1" xmlns="http://www.w3.org/2000/svg" xmlns:xlink="http://www.w3.org/1999/xlink" x="0px" y="0px" width="24px" height="24px"
	 viewBox="0 0 57.25 57.25" style="enable-background:new 0 0 57.25 57.25;" xml:space="preserve">
<g>
	<path style="fill:rgb(205, 113, 5);" d="M57.108,55.862c-3.067-2.909-6.87-5.593-11.033-7.727c-6.629-6.737-10.693-13.776-12.619-22.958
		c3.775,0.869,7.402-1.7,8.536-5.473C44.307,12,36.858,7.817,35.105,1.334c0.349-0.28,0.099-0.925-0.378-0.776
		c-0.011,0.003-0.022,0.008-0.033,0.012c-0.334-0.16-0.811-0.031-0.919,0.337c-9.102,3.816-11.562,19.469-1.605,23.846
		c0.592,8.171,4.683,16.555,10.946,21.995c-6.12-2.637-12.789-4.003-18.956-3.133c0.518-5.307-4.35-9.749-9.555-9.935
		C6.2,33.378,4.329,41.358,0.152,46.838c-0.534,0.7,0.463,1.436,1.109,1.109c5.624-2.849,10.519,3.325,16.394,2.113
		c2.998-0.619,5.258-2.55,6.198-5.41c5.577,0.828,11.009,1.09,16.428,2.945c5.931,2.03,11.255,5.275,16.213,9.062
		C56.954,57.008,57.519,56.252,57.108,55.862z M28.618,18.776c-1.067-2.179-1.352-4.557-0.956-6.917
		c0.6-3.575,3.247-7.352,6.254-9.678c0.418,1.942,1.449,3.361,2.68,5.097c3.152,4.443,7.974,15.467-1.502,15.725
		c-0.26,0.007-0.494-0.01-0.735-0.02c-1.368-2.945-1.376-5.645-1.079-8.85c0.043-0.461-0.615-0.481-0.756-0.102
		c-1.055,2.83-0.426,6.199,0.945,8.866C31.206,22.549,29.83,21.25,28.618,18.776z M22.958,43.825
		c-1.461,3.2-4.117,5.094-7.773,4.922c-2.741-0.129-4.566-1.675-7.008-2.538c-2.015-0.713-3.638-0.903-5.366-0.511
		c1.511-2.622,2.726-5.602,4.875-7.553c5.533-5.023,14.694-2.209,15.538,5.431C23.117,43.615,23.02,43.691,22.958,43.825z"/>
	<path style="fill:rgb(205, 113, 5);" d="M22.428,42.973c-4.068-1.033-8.175-1.084-12.3-0.378c-0.424,0.073-0.33,0.792,0.102,0.756
		c4.008-0.332,7.922,0.039,11.839,0.924C22.914,44.465,23.274,43.188,22.428,42.973z"/>
</g>
<g>
</g>
<g>
</g>
<g>
</g>
<g>
</g>
<g>
</g>
<g>
</g>
<g>
</g>
<g>
</g>
<g>
</g>
<g>
</g>
<g>
</g>
<g>
</g>
<g>
</g>
<g>
</g>
<g>
</g>
</svg>
